<svg width="32" height="32" viewBox="0 0 32 32" fill="none" xmlns="http://www.w3.org/2000/svg">
<g id="facebook">
<path id="Vector" d="M16 0C7.19999 0 0 7.21175 0 16.0939C0 24.1248 5.85599 30.7905 13.504 31.9951V20.7519H9.43999V16.0939H13.504V12.5443C13.504 8.51276 15.888 6.29623 19.552 6.29623C21.296 6.29623 23.12 6.6014 23.12 6.6014V10.5687H21.104C19.12 10.5687 18.496 11.8054 18.496 13.0743V16.0939H22.944L22.224 20.7519H18.496V31.9951C22.2663 31.3974 25.6995 29.4662 28.1758 26.5503C30.6522 23.6343 32.0085 19.9257 32 16.0939C32 7.21175 24.8 0 16 0Z" fill="white"/>
</g>
</svg>
