<svg width="32" height="32" viewBox="0 0 32 32" fill="none" xmlns="http://www.w3.org/2000/svg">
<g id="instagram">
<path id="Vector" fill-rule="evenodd" clip-rule="evenodd" d="M9.40364 0.0941395C11.1098 0.0171162 11.6538 0 16 0C20.3462 0 20.8902 0.0185426 22.5949 0.0941395C24.2996 0.169736 25.4633 0.436465 26.4815 0.823007C27.5476 1.21811 28.5149 1.83572 29.3149 2.63448C30.1295 3.41755 30.7578 4.36465 31.1593 5.41159C31.5549 6.41004 31.8255 7.55113 31.904 9.21996C31.9825 10.8959 32 11.4294 32 15.6899C32 19.9519 31.9811 20.4853 31.904 22.1584C31.8269 23.8273 31.5549 24.9684 31.1593 25.9668C30.7578 27.0139 30.1284 27.9626 29.3149 28.7468C28.5149 29.5455 27.5476 30.1617 26.4815 30.5554C25.4633 30.9434 24.2996 31.2087 22.5978 31.2857C20.8902 31.3627 20.3462 31.3798 16 31.3798C11.6538 31.3798 11.1098 31.3613 9.40364 31.2857C7.70182 31.2101 6.53818 30.9434 5.52 30.5554C4.45225 30.1617 3.48483 29.5445 2.68509 28.7468C1.8711 27.9632 1.24119 27.015 0.839273 25.9682C0.445091 24.9698 0.174545 23.8287 0.096 22.1599C0.0174545 20.4839 0 19.9504 0 15.6899C0 11.428 0.0189091 10.8945 0.096 9.22282C0.173091 7.55113 0.445091 6.41004 0.839273 5.41159C1.24178 4.36476 1.87217 3.41657 2.68655 2.63305C3.48515 1.83501 4.4516 1.21731 5.51855 0.823007C6.53673 0.436465 7.70182 0.171163 9.40364 0.0941395ZM22.4655 2.91832C20.7782 2.84273 20.272 2.82704 16 2.82704C11.728 2.82704 11.2218 2.84273 9.53455 2.91832C7.97382 2.98822 7.12727 3.24353 6.56291 3.45891C5.81673 3.74418 5.28291 4.08223 4.72291 4.63138C4.19207 5.13781 3.78354 5.75432 3.52727 6.43572C3.30764 6.98914 3.04727 7.81928 2.976 9.34976C2.89891 11.0043 2.88291 11.5007 2.88291 15.6899C2.88291 19.8791 2.89891 20.3755 2.976 22.0301C3.04727 23.5605 3.30764 24.3907 3.52727 24.9441C3.78327 25.6245 4.192 26.2421 4.72291 26.7484C5.23927 27.2691 5.86909 27.6699 6.56291 27.9209C7.12727 28.1363 7.97382 28.3916 9.53455 28.4615C11.2218 28.5371 11.7265 28.5528 16 28.5528C20.2735 28.5528 20.7782 28.5371 22.4655 28.4615C24.0262 28.3916 24.8727 28.1363 25.4371 27.9209C26.1833 27.6356 26.7171 27.2976 27.2771 26.7484C27.808 26.2421 28.2167 25.6245 28.4727 24.9441C28.6924 24.3907 28.9527 23.5605 29.024 22.0301C29.1011 20.3755 29.1171 19.8791 29.1171 15.6899C29.1171 11.5007 29.1011 11.0043 29.024 9.34976C28.9527 7.81928 28.6924 6.98914 28.4727 6.43572C28.1818 5.704 27.8371 5.18052 27.2771 4.63138C26.7606 4.11086 26.1319 3.71025 25.4371 3.45891C24.8727 3.24353 24.0262 2.98822 22.4655 2.91832ZM13.9564 20.5267C15.0977 20.9926 16.3686 21.0555 17.5519 20.7046C18.7352 20.3537 19.7577 19.6108 20.4445 18.6029C21.1314 17.5949 21.4401 16.3844 21.3179 15.178C21.1957 13.9716 20.6502 12.8443 19.7745 11.9885C19.2163 11.4415 18.5414 11.0226 17.7983 10.7621C17.0552 10.5015 16.2624 10.4058 15.4771 10.4817C14.6917 10.5577 13.9333 10.8035 13.2564 11.2014C12.5796 11.5992 12.0011 12.1393 11.5626 12.7828C11.1242 13.4262 10.8366 14.157 10.7208 14.9225C10.6049 15.688 10.6635 16.4691 10.8924 17.2097C11.1214 17.9503 11.5149 18.6319 12.0447 19.2055C12.5745 19.779 13.2274 20.2303 13.9564 20.5267ZM10.1847 9.98734C10.9484 9.23847 11.855 8.64443 12.8528 8.23915C13.8506 7.83386 14.92 7.62526 16 7.62526C17.08 7.62526 18.1494 7.83386 19.1472 8.23915C20.145 8.64443 21.0516 9.23847 21.8153 9.98734C22.5789 10.7362 23.1847 11.6253 23.598 12.6037C24.0113 13.5822 24.224 14.6308 24.224 15.6899C24.224 16.749 24.0113 17.7977 23.598 18.7761C23.1847 19.7546 22.5789 20.6436 21.8153 21.3925C20.273 22.9049 18.1812 23.7546 16 23.7546C13.8188 23.7546 11.727 22.9049 10.1847 21.3925C8.64242 19.8801 7.77596 17.8288 7.77596 15.6899C7.77596 13.551 8.64242 11.4998 10.1847 9.98734ZM26.048 8.82629C26.2372 8.65123 26.3887 8.44072 26.4935 8.20721C26.5983 7.97371 26.6543 7.72196 26.6581 7.46687C26.6619 7.21178 26.6134 6.95854 26.5156 6.72214C26.4178 6.48574 26.2726 6.27099 26.0887 6.09059C25.9047 5.9102 25.6857 5.76784 25.4446 5.67193C25.2036 5.57602 24.9453 5.52852 24.6852 5.53224C24.4251 5.53596 24.1683 5.59082 23.9302 5.69358C23.6921 5.79634 23.4774 5.9449 23.2989 6.13048C22.9517 6.49139 22.7616 6.97077 22.769 7.46687C22.7764 7.96297 22.9806 8.43672 23.3384 8.78755C23.6962 9.13839 24.1793 9.33868 24.6852 9.34591C25.1911 9.35314 25.68 9.16675 26.048 8.82629Z" fill="white"/>
</g>
</svg>
