<svg width="33" height="33" viewBox="0 0 33 33" fill="none" xmlns="http://www.w3.org/2000/svg">
<g id="instagram">
<path id="Vector" fill-rule="evenodd" clip-rule="evenodd" d="M9.43837 0.856835C11.1445 0.779812 11.6885 0.762695 16.0347 0.762695C20.3809 0.762695 20.9249 0.781238 22.6296 0.856835C24.3344 0.932432 25.498 1.19916 26.5162 1.5857C27.5824 1.9808 28.5496 2.59841 29.3496 3.39717C30.1642 4.18024 30.7925 5.12734 31.194 6.17429C31.5896 7.17274 31.8602 8.31382 31.9387 9.98266C32.0173 11.6586 32.0347 12.1921 32.0347 16.4526C32.0347 20.7146 32.0158 21.248 31.9387 22.9211C31.8616 24.59 31.5896 25.7311 31.194 26.7295C30.7925 27.7766 30.1631 28.7253 29.3496 29.5095C28.5496 30.3082 27.5824 30.9244 26.5162 31.3181C25.498 31.7061 24.3344 31.9714 22.6325 32.0484C20.9249 32.1254 20.3809 32.1425 16.0347 32.1425C11.6885 32.1425 11.1445 32.124 9.43837 32.0484C7.73655 31.9728 6.57291 31.7061 5.55473 31.3181C4.48698 30.9244 3.51956 30.3072 2.71982 29.5095C1.90583 28.7259 1.27591 27.7777 0.874002 26.7309C0.47982 25.7325 0.209274 24.5914 0.130729 22.9226C0.0521835 21.2466 0.034729 20.7131 0.034729 16.4526C0.034729 12.1907 0.0536381 11.6572 0.130729 9.98551C0.20782 8.31382 0.47982 7.17274 0.874002 6.17429C1.27651 5.12746 1.9069 4.17926 2.72127 3.39575C3.51988 2.5977 4.48632 1.98001 5.55327 1.5857C6.57146 1.19916 7.73655 0.933858 9.43837 0.856835ZM22.5002 3.68102C20.8129 3.60542 20.3067 3.58973 16.0347 3.58973C11.7627 3.58973 11.2565 3.60542 9.56927 3.68102C8.00855 3.75091 7.162 4.00623 6.59764 4.22161C5.85146 4.50688 5.31764 4.84493 4.75764 5.39407C4.22679 5.9005 3.81826 6.51702 3.562 7.19841C3.34237 7.75184 3.082 8.58198 3.01073 10.1125C2.93364 11.767 2.91764 12.2634 2.91764 16.4526C2.91764 20.6418 2.93364 21.1382 3.01073 22.7928C3.082 24.3232 3.34237 25.1534 3.562 25.7068C3.818 26.3872 4.22673 27.0048 4.75764 27.5111C5.274 28.0318 5.90382 28.4326 6.59764 28.6836C7.162 28.899 8.00855 29.1543 9.56927 29.2242C11.2565 29.2998 11.7613 29.3155 16.0347 29.3155C20.3082 29.3155 20.8129 29.2998 22.5002 29.2242C24.0609 29.1543 24.9075 28.899 25.4718 28.6836C26.218 28.3983 26.7518 28.0603 27.3118 27.5111C27.8427 27.0048 28.2515 26.3872 28.5075 25.7068C28.7271 25.1534 28.9875 24.3232 29.0587 22.7928C29.1358 21.1382 29.1518 20.6418 29.1518 16.4526C29.1518 12.2634 29.1358 11.767 29.0587 10.1125C28.9875 8.58198 28.7271 7.75184 28.5075 7.19841C28.2165 6.46669 27.8718 5.94322 27.3118 5.39407C26.7954 4.87355 26.1667 4.47295 25.4718 4.22161C24.9075 4.00623 24.0609 3.75091 22.5002 3.68102ZM13.9911 21.2894C15.1324 21.7553 16.4033 21.8182 17.5866 21.4673C18.77 21.1164 19.7924 20.3735 20.4793 19.3656C21.1661 18.3576 21.4748 17.1471 21.3526 15.9407C21.2304 14.7343 20.6849 13.607 19.8093 12.7512C19.2511 12.2042 18.5761 11.7853 17.833 11.5248C17.0899 11.2642 16.2972 11.1685 15.5118 11.2444C14.7265 11.3204 13.968 11.5662 13.2912 11.9641C12.6143 12.3619 12.0358 12.902 11.5974 13.5455C11.1589 14.1889 10.8714 14.9197 10.7555 15.6852C10.6396 16.4507 10.6982 17.2318 10.9272 17.9724C11.1561 18.713 11.5496 19.3946 12.0794 19.9682C12.6092 20.5417 13.2621 20.993 13.9911 21.2894ZM10.2195 10.75C10.9831 10.0012 11.8897 9.40713 12.8875 9.00184C13.8853 8.59655 14.9547 8.38796 16.0347 8.38796C17.1147 8.38796 18.1841 8.59655 19.1819 9.00184C20.1797 9.40713 21.0863 10.0012 21.85 10.75C22.6137 11.4989 23.2195 12.388 23.6327 13.3664C24.046 14.3448 24.2588 15.3935 24.2588 16.4526C24.2588 17.5117 24.046 18.5604 23.6327 19.5388C23.2195 20.5173 22.6137 21.4063 21.85 22.1552C20.3077 23.6676 18.2159 24.5173 16.0347 24.5173C13.8536 24.5173 11.7618 23.6676 10.2195 22.1552C8.67715 20.6428 7.81069 18.5915 7.81069 16.4526C7.81069 14.3137 8.67715 12.2625 10.2195 10.75ZM26.0827 9.58898C26.272 9.41393 26.4235 9.20341 26.5283 8.96991C26.6331 8.7364 26.689 8.48466 26.6928 8.22957C26.6966 7.97448 26.6481 7.72124 26.5503 7.48484C26.4525 7.24844 26.3074 7.03368 26.1234 6.85329C25.9394 6.6729 25.7204 6.53053 25.4794 6.43462C25.2383 6.33872 24.9801 6.29122 24.7199 6.29493C24.4598 6.29865 24.2031 6.35352 23.965 6.45627C23.7268 6.55903 23.5122 6.7076 23.3336 6.89317C22.9865 7.25408 22.7964 7.73347 22.8038 8.22957C22.8111 8.72567 23.0154 9.19942 23.3731 9.55025C23.7309 9.90108 24.214 10.1014 24.7199 10.1086C25.2258 10.1158 25.7147 9.92944 26.0827 9.58898Z" fill="#EB3174" fill-opacity="0.99"/>
</g>
</svg>
